G75*
G70*
%OFA0B0*%
%FSLAX24Y24*%
%IPPOS*%
%LPD*%
%AMOC8*
5,1,8,0,0,1.08239X$1,22.5*
%
%ADD10C,0.0520*%
%ADD11R,0.0520X0.0520*%
%ADD12R,0.0260X0.0800*%
%ADD13R,0.0600X0.0600*%
%ADD14C,0.0600*%
%ADD15C,0.0475*%
%ADD16C,0.0160*%
%ADD17C,0.0396*%
D10*
X003850Y008600D03*
X004850Y008600D03*
X009850Y008600D03*
X010850Y008600D03*
D11*
X011850Y008600D03*
X005850Y008600D03*
D12*
X006350Y005435D03*
X006850Y005435D03*
X007350Y005435D03*
X007850Y005435D03*
X008350Y005435D03*
X008850Y005435D03*
X009350Y005435D03*
X009350Y003015D03*
X008850Y003015D03*
X008350Y003015D03*
X007850Y003015D03*
X007350Y003015D03*
X006850Y003015D03*
X006350Y003015D03*
D13*
X006850Y008600D03*
D14*
X007850Y008600D03*
X008850Y008600D03*
D15*
X003850Y001100D03*
X004850Y001100D03*
X005850Y001100D03*
X006850Y001100D03*
X007850Y001100D03*
X008850Y001100D03*
X009850Y001100D03*
X010850Y001100D03*
X011850Y001100D03*
X011850Y007100D03*
X010850Y007100D03*
X009850Y007100D03*
X008850Y007100D03*
X007850Y007100D03*
X006850Y007100D03*
X005850Y007100D03*
X004850Y007100D03*
X003850Y007100D03*
D16*
X005350Y008100D02*
X004850Y008600D01*
X005350Y008100D02*
X005350Y004850D01*
X005975Y004225D01*
X007850Y004225D01*
X008225Y004600D01*
X008600Y004600D01*
X008725Y004725D01*
X009225Y004725D01*
X009350Y004850D01*
X009350Y005475D01*
X008850Y005475D02*
X008350Y005475D01*
X007850Y005475D02*
X007850Y004850D01*
X007600Y004600D01*
X006850Y004600D01*
X006850Y005475D01*
X006350Y005600D02*
X006350Y006100D01*
X006725Y006475D01*
X007225Y006475D01*
X007850Y007100D01*
X007850Y008475D01*
X006850Y008475D02*
X006350Y007975D01*
X006350Y006600D01*
X005975Y006225D01*
X005975Y004850D01*
X006225Y004600D01*
X006850Y004600D01*
X005350Y004225D02*
X005350Y002225D01*
X005600Y001975D01*
X010100Y001975D01*
X010350Y002225D01*
X010350Y003850D01*
X009350Y003850D02*
X009350Y002975D01*
X008975Y004225D02*
X009100Y004350D01*
X011350Y004350D01*
X011350Y008850D01*
X011100Y009100D01*
X010350Y009100D01*
X009850Y008600D01*
X010350Y008100D02*
X010850Y008600D01*
X010350Y008100D02*
X010350Y006725D01*
X010100Y006475D01*
X007725Y006475D01*
X007350Y006100D01*
X007350Y005600D01*
X008850Y005600D02*
X008850Y005475D01*
X008850Y007100D02*
X007850Y007100D01*
D17*
X011350Y004350D03*
X010350Y003850D03*
X009350Y003850D03*
X008975Y004225D03*
X005350Y004225D03*
M02*
