G75*
G70*
%OFA0B0*%
%FSLAX24Y24*%
%IPPOS*%
%LPD*%
%AMOC8*
5,1,8,0,0,1.08239X$1,22.5*
%
%ADD10C,0.0000*%
D10*
X002600Y000100D02*
X002600Y002350D01*
X001850Y002350D01*
X001161Y004100D02*
X001163Y004152D01*
X001169Y004204D01*
X001179Y004255D01*
X001192Y004305D01*
X001210Y004355D01*
X001231Y004402D01*
X001255Y004448D01*
X001284Y004492D01*
X001315Y004534D01*
X001349Y004573D01*
X001386Y004610D01*
X001426Y004643D01*
X001469Y004674D01*
X001513Y004701D01*
X001559Y004725D01*
X001608Y004745D01*
X001657Y004761D01*
X001708Y004774D01*
X001759Y004783D01*
X001811Y004788D01*
X001863Y004789D01*
X001915Y004786D01*
X001967Y004779D01*
X002018Y004768D01*
X002068Y004754D01*
X002117Y004735D01*
X002164Y004713D01*
X002209Y004688D01*
X002253Y004659D01*
X002294Y004627D01*
X002333Y004592D01*
X002368Y004554D01*
X002401Y004513D01*
X002431Y004471D01*
X002457Y004426D01*
X002480Y004379D01*
X002499Y004330D01*
X002515Y004280D01*
X002527Y004230D01*
X002535Y004178D01*
X002539Y004126D01*
X002539Y004074D01*
X002535Y004022D01*
X002527Y003970D01*
X002515Y003920D01*
X002499Y003870D01*
X002480Y003821D01*
X002457Y003774D01*
X002431Y003729D01*
X002401Y003687D01*
X002368Y003646D01*
X002333Y003608D01*
X002294Y003573D01*
X002253Y003541D01*
X002209Y003512D01*
X002164Y003487D01*
X002117Y003465D01*
X002068Y003446D01*
X002018Y003432D01*
X001967Y003421D01*
X001915Y003414D01*
X001863Y003411D01*
X001811Y003412D01*
X001759Y003417D01*
X001708Y003426D01*
X001657Y003439D01*
X001608Y003455D01*
X001559Y003475D01*
X001513Y003499D01*
X001469Y003526D01*
X001426Y003557D01*
X001386Y003590D01*
X001349Y003627D01*
X001315Y003666D01*
X001284Y003708D01*
X001255Y003752D01*
X001231Y003798D01*
X001210Y003845D01*
X001192Y003895D01*
X001179Y003945D01*
X001169Y003996D01*
X001163Y004048D01*
X001161Y004100D01*
X000100Y004100D02*
X000102Y004017D01*
X000108Y003934D01*
X000118Y003851D01*
X000132Y003769D01*
X000149Y003687D01*
X000171Y003607D01*
X000196Y003528D01*
X000225Y003450D01*
X000258Y003373D01*
X000295Y003298D01*
X000334Y003225D01*
X000378Y003154D01*
X000424Y003085D01*
X000474Y003018D01*
X000527Y002954D01*
X000583Y002892D01*
X000642Y002833D01*
X000704Y002777D01*
X000768Y002724D01*
X000835Y002674D01*
X000904Y002628D01*
X000975Y002584D01*
X001048Y002545D01*
X001123Y002508D01*
X001200Y002475D01*
X001278Y002446D01*
X001357Y002421D01*
X001437Y002399D01*
X001519Y002382D01*
X001601Y002368D01*
X001684Y002358D01*
X001767Y002352D01*
X001850Y002350D01*
X000100Y004100D02*
X000102Y004183D01*
X000108Y004266D01*
X000118Y004349D01*
X000132Y004431D01*
X000149Y004513D01*
X000171Y004593D01*
X000196Y004672D01*
X000225Y004750D01*
X000258Y004827D01*
X000295Y004902D01*
X000334Y004975D01*
X000378Y005046D01*
X000424Y005115D01*
X000474Y005182D01*
X000527Y005246D01*
X000583Y005308D01*
X000642Y005367D01*
X000704Y005423D01*
X000768Y005476D01*
X000835Y005526D01*
X000904Y005572D01*
X000975Y005616D01*
X001048Y005655D01*
X001123Y005692D01*
X001200Y005725D01*
X001278Y005754D01*
X001357Y005779D01*
X001437Y005801D01*
X001519Y005818D01*
X001601Y005832D01*
X001684Y005842D01*
X001767Y005848D01*
X001850Y005850D01*
X002600Y005850D01*
X002600Y009850D01*
X013100Y009850D01*
X013100Y005850D01*
X013850Y005850D01*
X013161Y004100D02*
X013163Y004152D01*
X013169Y004204D01*
X013179Y004255D01*
X013192Y004305D01*
X013210Y004355D01*
X013231Y004402D01*
X013255Y004448D01*
X013284Y004492D01*
X013315Y004534D01*
X013349Y004573D01*
X013386Y004610D01*
X013426Y004643D01*
X013469Y004674D01*
X013513Y004701D01*
X013559Y004725D01*
X013608Y004745D01*
X013657Y004761D01*
X013708Y004774D01*
X013759Y004783D01*
X013811Y004788D01*
X013863Y004789D01*
X013915Y004786D01*
X013967Y004779D01*
X014018Y004768D01*
X014068Y004754D01*
X014117Y004735D01*
X014164Y004713D01*
X014209Y004688D01*
X014253Y004659D01*
X014294Y004627D01*
X014333Y004592D01*
X014368Y004554D01*
X014401Y004513D01*
X014431Y004471D01*
X014457Y004426D01*
X014480Y004379D01*
X014499Y004330D01*
X014515Y004280D01*
X014527Y004230D01*
X014535Y004178D01*
X014539Y004126D01*
X014539Y004074D01*
X014535Y004022D01*
X014527Y003970D01*
X014515Y003920D01*
X014499Y003870D01*
X014480Y003821D01*
X014457Y003774D01*
X014431Y003729D01*
X014401Y003687D01*
X014368Y003646D01*
X014333Y003608D01*
X014294Y003573D01*
X014253Y003541D01*
X014209Y003512D01*
X014164Y003487D01*
X014117Y003465D01*
X014068Y003446D01*
X014018Y003432D01*
X013967Y003421D01*
X013915Y003414D01*
X013863Y003411D01*
X013811Y003412D01*
X013759Y003417D01*
X013708Y003426D01*
X013657Y003439D01*
X013608Y003455D01*
X013559Y003475D01*
X013513Y003499D01*
X013469Y003526D01*
X013426Y003557D01*
X013386Y003590D01*
X013349Y003627D01*
X013315Y003666D01*
X013284Y003708D01*
X013255Y003752D01*
X013231Y003798D01*
X013210Y003845D01*
X013192Y003895D01*
X013179Y003945D01*
X013169Y003996D01*
X013163Y004048D01*
X013161Y004100D01*
X013850Y005850D02*
X013933Y005848D01*
X014016Y005842D01*
X014099Y005832D01*
X014181Y005818D01*
X014263Y005801D01*
X014343Y005779D01*
X014422Y005754D01*
X014500Y005725D01*
X014577Y005692D01*
X014652Y005655D01*
X014725Y005616D01*
X014796Y005572D01*
X014865Y005526D01*
X014932Y005476D01*
X014996Y005423D01*
X015058Y005367D01*
X015117Y005308D01*
X015173Y005246D01*
X015226Y005182D01*
X015276Y005115D01*
X015322Y005046D01*
X015366Y004975D01*
X015405Y004902D01*
X015442Y004827D01*
X015475Y004750D01*
X015504Y004672D01*
X015529Y004593D01*
X015551Y004513D01*
X015568Y004431D01*
X015582Y004349D01*
X015592Y004266D01*
X015598Y004183D01*
X015600Y004100D01*
X015598Y004017D01*
X015592Y003934D01*
X015582Y003851D01*
X015568Y003769D01*
X015551Y003687D01*
X015529Y003607D01*
X015504Y003528D01*
X015475Y003450D01*
X015442Y003373D01*
X015405Y003298D01*
X015366Y003225D01*
X015322Y003154D01*
X015276Y003085D01*
X015226Y003018D01*
X015173Y002954D01*
X015117Y002892D01*
X015058Y002833D01*
X014996Y002777D01*
X014932Y002724D01*
X014865Y002674D01*
X014796Y002628D01*
X014725Y002584D01*
X014652Y002545D01*
X014577Y002508D01*
X014500Y002475D01*
X014422Y002446D01*
X014343Y002421D01*
X014263Y002399D01*
X014181Y002382D01*
X014099Y002368D01*
X014016Y002358D01*
X013933Y002352D01*
X013850Y002350D01*
X013100Y002350D01*
X013100Y000100D01*
X002600Y000100D01*
M02*
