%
M48
M72
T01C0.0236
T02C0.0315
T03C0.0320
T04C0.0400
T05C0.1378
%
T01
X5350Y4225
X8975Y4225
X9350Y3850
X10350Y3850
X11350Y4350
T02
X3850Y1100
X4850Y1100
X5850Y1100
X6850Y1100
X7850Y1100
X8850Y1100
X9850Y1100
X10850Y1100
X11850Y1100
X11850Y7100
X10850Y7100
X9850Y7100
X8850Y7100
X7850Y7100
X6850Y7100
X5850Y7100
X4850Y7100
X3850Y7100
T03
X3850Y8600
X4850Y8600
X5850Y8600
X9850Y8600
X10850Y8600
X11850Y8600
T04
X8850Y8600
X7850Y8600
X6850Y8600
T05
X1850Y4100
X13850Y4100
M30
