G75*
G70*
%OFA0B0*%
%FSLAX24Y24*%
%IPPOS*%
%LPD*%
%AMOC8*
5,1,8,0,0,1.08239X$1,22.5*
%
%ADD10R,0.0591X0.0512*%
%ADD11C,0.0520*%
%ADD12R,0.0520X0.0520*%
%ADD13R,0.0512X0.0591*%
%ADD14R,0.0600X0.0600*%
%ADD15C,0.0600*%
%ADD16C,0.0475*%
%ADD17C,0.0160*%
%ADD18C,0.0396*%
D10*
X004850Y002226D03*
X004850Y002974D03*
X005850Y002974D03*
X006850Y002974D03*
X006850Y002226D03*
X005850Y002226D03*
X007850Y002226D03*
X008850Y002226D03*
X009850Y002226D03*
X009850Y002974D03*
X008850Y002974D03*
X007850Y002974D03*
X010850Y002974D03*
X010850Y002226D03*
X010850Y005226D03*
X011850Y005226D03*
X011850Y005974D03*
X010850Y005974D03*
X009850Y005974D03*
X009850Y005226D03*
X006850Y005226D03*
X005850Y005226D03*
X004850Y005226D03*
X004850Y005974D03*
X005850Y005974D03*
X006850Y005974D03*
D11*
X004850Y008600D03*
X003850Y008600D03*
X009850Y008600D03*
X010850Y008600D03*
D12*
X011850Y008600D03*
X005850Y008600D03*
D13*
X005724Y007850D03*
X004976Y007850D03*
X009976Y007850D03*
X010724Y007850D03*
D14*
X006850Y008600D03*
D15*
X007850Y008600D03*
X008850Y008600D03*
D16*
X003850Y001100D03*
X004850Y001100D03*
X005850Y001100D03*
X006850Y001100D03*
X007850Y001100D03*
X008850Y001100D03*
X009850Y001100D03*
X010850Y001100D03*
X011850Y001100D03*
X011850Y007100D03*
X010850Y007100D03*
X009850Y007100D03*
X008850Y007100D03*
X007850Y007100D03*
X006850Y007100D03*
X005850Y007100D03*
X004850Y007100D03*
X003850Y007100D03*
D17*
X004850Y007100D02*
X004850Y005850D01*
X004850Y005350D02*
X004850Y004225D01*
X004475Y004225D01*
X004350Y004350D01*
X004350Y008100D01*
X003850Y008600D01*
X004850Y008600D02*
X004975Y008475D01*
X004975Y007850D01*
X005725Y007850D02*
X006600Y007850D01*
X005850Y008600D01*
X006600Y007850D02*
X008350Y007850D01*
X008850Y007850D01*
X009975Y007850D01*
X010725Y007850D02*
X010725Y008475D01*
X010850Y008600D01*
X011350Y009100D02*
X011850Y008600D01*
X011350Y009100D02*
X009350Y009100D01*
X008850Y008600D01*
X008850Y007850D01*
X008350Y007850D02*
X008350Y006350D01*
X008850Y005850D01*
X008850Y005100D01*
X009350Y004600D01*
X009350Y004350D01*
X009350Y003850D01*
X009100Y003850D01*
X008850Y003600D01*
X008850Y002850D01*
X008850Y002350D02*
X008850Y001100D01*
X007850Y001100D02*
X007850Y002350D01*
X007850Y002850D02*
X007850Y003850D01*
X008225Y004225D01*
X008975Y004225D01*
X009350Y004350D02*
X009850Y004350D01*
X010850Y004350D01*
X010850Y005350D01*
X010850Y005850D02*
X010850Y007100D01*
X011850Y007100D02*
X011850Y005850D01*
X011850Y005350D02*
X011850Y004350D01*
X011350Y004350D01*
X010850Y004350D02*
X010850Y003100D01*
X010350Y003850D02*
X010100Y003850D01*
X009850Y003600D01*
X009850Y002850D01*
X009850Y002350D02*
X009850Y001100D01*
X010850Y001100D02*
X010850Y002350D01*
X009850Y004350D02*
X009850Y005350D01*
X009850Y005850D02*
X009850Y007100D01*
X008350Y006350D02*
X007850Y005850D01*
X007850Y004975D01*
X007100Y004225D01*
X006850Y004225D01*
X006850Y005350D01*
X006850Y005850D02*
X006850Y007100D01*
X005850Y007100D02*
X005850Y005850D01*
X005850Y005100D02*
X005850Y004225D01*
X005850Y003100D01*
X006850Y003100D02*
X006850Y004225D01*
X005850Y004225D01*
X005350Y004225D02*
X004850Y004225D01*
X004850Y002850D01*
X004850Y002100D02*
X004850Y001100D01*
X005850Y001100D02*
X005850Y002100D01*
X006850Y002350D02*
X006850Y001100D01*
D18*
X009350Y003850D03*
X008975Y004225D03*
X010350Y003850D03*
X011350Y004350D03*
X005350Y004225D03*
M02*
