G75*
G70*
%OFA0B0*%
%FSLAX24Y24*%
%IPPOS*%
%LPD*%
%AMOC8*
5,1,8,0,0,1.08239X$1,22.5*
%
%ADD10C,0.0000*%
%ADD11C,0.0040*%
%ADD12C,0.0050*%
%ADD13C,0.0060*%
%ADD14C,0.0020*%
D10*
X002600Y000100D02*
X002600Y002350D01*
X001850Y002350D01*
X001161Y004100D02*
X001163Y004152D01*
X001169Y004204D01*
X001179Y004255D01*
X001192Y004305D01*
X001210Y004355D01*
X001231Y004402D01*
X001255Y004448D01*
X001284Y004492D01*
X001315Y004534D01*
X001349Y004573D01*
X001386Y004610D01*
X001426Y004643D01*
X001469Y004674D01*
X001513Y004701D01*
X001559Y004725D01*
X001608Y004745D01*
X001657Y004761D01*
X001708Y004774D01*
X001759Y004783D01*
X001811Y004788D01*
X001863Y004789D01*
X001915Y004786D01*
X001967Y004779D01*
X002018Y004768D01*
X002068Y004754D01*
X002117Y004735D01*
X002164Y004713D01*
X002209Y004688D01*
X002253Y004659D01*
X002294Y004627D01*
X002333Y004592D01*
X002368Y004554D01*
X002401Y004513D01*
X002431Y004471D01*
X002457Y004426D01*
X002480Y004379D01*
X002499Y004330D01*
X002515Y004280D01*
X002527Y004230D01*
X002535Y004178D01*
X002539Y004126D01*
X002539Y004074D01*
X002535Y004022D01*
X002527Y003970D01*
X002515Y003920D01*
X002499Y003870D01*
X002480Y003821D01*
X002457Y003774D01*
X002431Y003729D01*
X002401Y003687D01*
X002368Y003646D01*
X002333Y003608D01*
X002294Y003573D01*
X002253Y003541D01*
X002209Y003512D01*
X002164Y003487D01*
X002117Y003465D01*
X002068Y003446D01*
X002018Y003432D01*
X001967Y003421D01*
X001915Y003414D01*
X001863Y003411D01*
X001811Y003412D01*
X001759Y003417D01*
X001708Y003426D01*
X001657Y003439D01*
X001608Y003455D01*
X001559Y003475D01*
X001513Y003499D01*
X001469Y003526D01*
X001426Y003557D01*
X001386Y003590D01*
X001349Y003627D01*
X001315Y003666D01*
X001284Y003708D01*
X001255Y003752D01*
X001231Y003798D01*
X001210Y003845D01*
X001192Y003895D01*
X001179Y003945D01*
X001169Y003996D01*
X001163Y004048D01*
X001161Y004100D01*
X000100Y004100D02*
X000102Y004017D01*
X000108Y003934D01*
X000118Y003851D01*
X000132Y003769D01*
X000149Y003687D01*
X000171Y003607D01*
X000196Y003528D01*
X000225Y003450D01*
X000258Y003373D01*
X000295Y003298D01*
X000334Y003225D01*
X000378Y003154D01*
X000424Y003085D01*
X000474Y003018D01*
X000527Y002954D01*
X000583Y002892D01*
X000642Y002833D01*
X000704Y002777D01*
X000768Y002724D01*
X000835Y002674D01*
X000904Y002628D01*
X000975Y002584D01*
X001048Y002545D01*
X001123Y002508D01*
X001200Y002475D01*
X001278Y002446D01*
X001357Y002421D01*
X001437Y002399D01*
X001519Y002382D01*
X001601Y002368D01*
X001684Y002358D01*
X001767Y002352D01*
X001850Y002350D01*
X000100Y004100D02*
X000102Y004183D01*
X000108Y004266D01*
X000118Y004349D01*
X000132Y004431D01*
X000149Y004513D01*
X000171Y004593D01*
X000196Y004672D01*
X000225Y004750D01*
X000258Y004827D01*
X000295Y004902D01*
X000334Y004975D01*
X000378Y005046D01*
X000424Y005115D01*
X000474Y005182D01*
X000527Y005246D01*
X000583Y005308D01*
X000642Y005367D01*
X000704Y005423D01*
X000768Y005476D01*
X000835Y005526D01*
X000904Y005572D01*
X000975Y005616D01*
X001048Y005655D01*
X001123Y005692D01*
X001200Y005725D01*
X001278Y005754D01*
X001357Y005779D01*
X001437Y005801D01*
X001519Y005818D01*
X001601Y005832D01*
X001684Y005842D01*
X001767Y005848D01*
X001850Y005850D01*
X002600Y005850D01*
X002600Y009850D01*
X013100Y009850D01*
X013100Y005850D01*
X013850Y005850D01*
X013161Y004100D02*
X013163Y004152D01*
X013169Y004204D01*
X013179Y004255D01*
X013192Y004305D01*
X013210Y004355D01*
X013231Y004402D01*
X013255Y004448D01*
X013284Y004492D01*
X013315Y004534D01*
X013349Y004573D01*
X013386Y004610D01*
X013426Y004643D01*
X013469Y004674D01*
X013513Y004701D01*
X013559Y004725D01*
X013608Y004745D01*
X013657Y004761D01*
X013708Y004774D01*
X013759Y004783D01*
X013811Y004788D01*
X013863Y004789D01*
X013915Y004786D01*
X013967Y004779D01*
X014018Y004768D01*
X014068Y004754D01*
X014117Y004735D01*
X014164Y004713D01*
X014209Y004688D01*
X014253Y004659D01*
X014294Y004627D01*
X014333Y004592D01*
X014368Y004554D01*
X014401Y004513D01*
X014431Y004471D01*
X014457Y004426D01*
X014480Y004379D01*
X014499Y004330D01*
X014515Y004280D01*
X014527Y004230D01*
X014535Y004178D01*
X014539Y004126D01*
X014539Y004074D01*
X014535Y004022D01*
X014527Y003970D01*
X014515Y003920D01*
X014499Y003870D01*
X014480Y003821D01*
X014457Y003774D01*
X014431Y003729D01*
X014401Y003687D01*
X014368Y003646D01*
X014333Y003608D01*
X014294Y003573D01*
X014253Y003541D01*
X014209Y003512D01*
X014164Y003487D01*
X014117Y003465D01*
X014068Y003446D01*
X014018Y003432D01*
X013967Y003421D01*
X013915Y003414D01*
X013863Y003411D01*
X013811Y003412D01*
X013759Y003417D01*
X013708Y003426D01*
X013657Y003439D01*
X013608Y003455D01*
X013559Y003475D01*
X013513Y003499D01*
X013469Y003526D01*
X013426Y003557D01*
X013386Y003590D01*
X013349Y003627D01*
X013315Y003666D01*
X013284Y003708D01*
X013255Y003752D01*
X013231Y003798D01*
X013210Y003845D01*
X013192Y003895D01*
X013179Y003945D01*
X013169Y003996D01*
X013163Y004048D01*
X013161Y004100D01*
X013850Y005850D02*
X013933Y005848D01*
X014016Y005842D01*
X014099Y005832D01*
X014181Y005818D01*
X014263Y005801D01*
X014343Y005779D01*
X014422Y005754D01*
X014500Y005725D01*
X014577Y005692D01*
X014652Y005655D01*
X014725Y005616D01*
X014796Y005572D01*
X014865Y005526D01*
X014932Y005476D01*
X014996Y005423D01*
X015058Y005367D01*
X015117Y005308D01*
X015173Y005246D01*
X015226Y005182D01*
X015276Y005115D01*
X015322Y005046D01*
X015366Y004975D01*
X015405Y004902D01*
X015442Y004827D01*
X015475Y004750D01*
X015504Y004672D01*
X015529Y004593D01*
X015551Y004513D01*
X015568Y004431D01*
X015582Y004349D01*
X015592Y004266D01*
X015598Y004183D01*
X015600Y004100D01*
X015598Y004017D01*
X015592Y003934D01*
X015582Y003851D01*
X015568Y003769D01*
X015551Y003687D01*
X015529Y003607D01*
X015504Y003528D01*
X015475Y003450D01*
X015442Y003373D01*
X015405Y003298D01*
X015366Y003225D01*
X015322Y003154D01*
X015276Y003085D01*
X015226Y003018D01*
X015173Y002954D01*
X015117Y002892D01*
X015058Y002833D01*
X014996Y002777D01*
X014932Y002724D01*
X014865Y002674D01*
X014796Y002628D01*
X014725Y002584D01*
X014652Y002545D01*
X014577Y002508D01*
X014500Y002475D01*
X014422Y002446D01*
X014343Y002421D01*
X014263Y002399D01*
X014181Y002382D01*
X014099Y002368D01*
X014016Y002358D01*
X013933Y002352D01*
X013850Y002350D01*
X013100Y002350D01*
X013100Y000100D01*
X002600Y000100D01*
D11*
X006765Y003745D02*
X006765Y003805D01*
X007005Y004045D01*
X007005Y004105D01*
X006765Y004105D01*
X006825Y004345D02*
X006765Y004405D01*
X006825Y004345D02*
X006945Y004345D01*
X007005Y004405D01*
X007005Y004525D01*
X006945Y004585D01*
X006885Y004585D01*
X006765Y004525D01*
X006765Y004705D01*
X007005Y004705D01*
X007133Y004705D02*
X007133Y004525D01*
X007253Y004585D01*
X007314Y004585D01*
X007374Y004525D01*
X007374Y004405D01*
X007314Y004345D01*
X007193Y004345D01*
X007133Y004405D01*
X007502Y004405D02*
X007562Y004345D01*
X007682Y004345D01*
X007742Y004405D01*
X007742Y004525D01*
X007682Y004585D01*
X007622Y004585D01*
X007502Y004525D01*
X007502Y004705D01*
X007742Y004705D01*
X007870Y004705D02*
X007870Y004345D01*
X008110Y004345D01*
X008238Y004345D02*
X008238Y004705D01*
X008479Y004345D01*
X008479Y004705D01*
X008607Y004585D02*
X008727Y004705D01*
X008727Y004345D01*
X008607Y004345D02*
X008847Y004345D01*
X008787Y004105D02*
X008607Y003925D01*
X008847Y003925D01*
X008787Y003745D02*
X008787Y004105D01*
X008479Y004045D02*
X008238Y003805D01*
X008298Y003745D01*
X008418Y003745D01*
X008479Y003805D01*
X008479Y004045D01*
X008418Y004105D01*
X008298Y004105D01*
X008238Y004045D01*
X008238Y003805D01*
X008110Y003805D02*
X008050Y003745D01*
X007930Y003745D01*
X007870Y003805D01*
X007930Y003925D02*
X008050Y003925D01*
X008110Y003865D01*
X008110Y003805D01*
X007930Y003925D02*
X007870Y003985D01*
X007870Y004045D01*
X007930Y004105D01*
X008050Y004105D01*
X008110Y004045D01*
X007742Y003745D02*
X007502Y003745D01*
X007502Y004105D01*
X007314Y004105D02*
X007133Y003925D01*
X007374Y003925D01*
X007314Y003745D02*
X007314Y004105D01*
X007374Y004705D02*
X007133Y004705D01*
X007057Y007620D02*
X007057Y007900D01*
X006870Y007900D02*
X006870Y007620D01*
X006963Y007713D01*
X007057Y007620D01*
X006762Y007667D02*
X006715Y007620D01*
X006622Y007620D01*
X006575Y007667D01*
X006622Y007760D02*
X006575Y007807D01*
X006575Y007854D01*
X006622Y007900D01*
X006715Y007900D01*
X006762Y007854D01*
X006715Y007760D02*
X006762Y007713D01*
X006762Y007667D01*
X006715Y007760D02*
X006622Y007760D01*
X007428Y007713D02*
X007521Y007620D01*
X007615Y007713D01*
X007615Y007900D01*
X007723Y007854D02*
X007723Y007667D01*
X007769Y007620D01*
X007863Y007620D01*
X007910Y007667D01*
X008017Y007667D02*
X008064Y007620D01*
X008157Y007620D01*
X008204Y007667D01*
X008204Y007854D02*
X008157Y007900D01*
X008064Y007900D01*
X008017Y007854D01*
X008017Y007667D01*
X007910Y007854D02*
X007863Y007900D01*
X007769Y007900D01*
X007723Y007854D01*
X007428Y007900D02*
X007428Y007713D01*
X008428Y007667D02*
X008475Y007620D01*
X008568Y007620D01*
X008615Y007667D01*
X008615Y007760D01*
X008521Y007760D01*
X008428Y007667D02*
X008428Y007854D01*
X008475Y007900D01*
X008568Y007900D01*
X008615Y007854D01*
X008723Y007900D02*
X008910Y007620D01*
X008910Y007900D01*
X009017Y007900D02*
X009157Y007900D01*
X009204Y007854D01*
X009204Y007667D01*
X009157Y007620D01*
X009017Y007620D01*
X009017Y007900D01*
X008723Y007900D02*
X008723Y007620D01*
D12*
X010297Y008650D02*
X010403Y008650D01*
X009896Y009038D02*
X009923Y009094D01*
X009954Y009148D01*
X009988Y009200D01*
X010025Y009250D01*
X011675Y009250D01*
X011403Y008650D02*
X011297Y008650D01*
X011800Y009047D02*
X011773Y009101D01*
X011743Y009152D01*
X011710Y009202D01*
X011675Y009250D01*
X011800Y008153D02*
X011771Y008096D01*
X011738Y008040D01*
X011703Y007987D01*
X011663Y007936D01*
X011621Y007888D01*
X011576Y007842D01*
X011529Y007799D01*
X011479Y007759D01*
X011426Y007722D01*
X011371Y007689D01*
X011315Y007658D01*
X011256Y007632D01*
X011196Y007609D01*
X011135Y007589D01*
X011073Y007574D01*
X011010Y007562D01*
X010946Y007554D01*
X010882Y007550D01*
X010818Y007550D01*
X010754Y007554D01*
X010690Y007562D01*
X010627Y007574D01*
X010565Y007589D01*
X010504Y007609D01*
X010444Y007632D01*
X010385Y007658D01*
X010329Y007689D01*
X010274Y007722D01*
X010221Y007759D01*
X010171Y007799D01*
X010124Y007842D01*
X010079Y007888D01*
X010037Y007936D01*
X009997Y007987D01*
X009962Y008040D01*
X009929Y008096D01*
X009900Y008153D01*
X005675Y009250D02*
X004025Y009250D01*
X004297Y008650D02*
X004403Y008650D01*
X003896Y009038D02*
X003923Y009094D01*
X003954Y009148D01*
X003988Y009200D01*
X004025Y009250D01*
X003900Y008153D02*
X003929Y008096D01*
X003962Y008040D01*
X003997Y007987D01*
X004037Y007936D01*
X004079Y007888D01*
X004124Y007842D01*
X004171Y007799D01*
X004221Y007759D01*
X004274Y007722D01*
X004329Y007689D01*
X004385Y007658D01*
X004444Y007632D01*
X004504Y007609D01*
X004565Y007589D01*
X004627Y007574D01*
X004690Y007562D01*
X004754Y007554D01*
X004818Y007550D01*
X004882Y007550D01*
X004946Y007554D01*
X005010Y007562D01*
X005073Y007574D01*
X005135Y007589D01*
X005196Y007609D01*
X005256Y007632D01*
X005315Y007658D01*
X005371Y007689D01*
X005426Y007722D01*
X005479Y007759D01*
X005529Y007799D01*
X005576Y007842D01*
X005621Y007888D01*
X005663Y007936D01*
X005703Y007987D01*
X005738Y008040D01*
X005771Y008096D01*
X005800Y008153D01*
X005403Y008650D02*
X005297Y008650D01*
X005800Y009047D02*
X005773Y009101D01*
X005743Y009152D01*
X005710Y009202D01*
X005675Y009250D01*
D13*
X006350Y008850D02*
X006600Y009100D01*
X007100Y009100D01*
X007350Y008850D01*
X007600Y009100D01*
X008100Y009100D01*
X008350Y008850D01*
X008600Y009100D01*
X009100Y009100D01*
X009350Y008850D01*
X009350Y008350D01*
X009100Y008100D01*
X008600Y008100D01*
X008350Y008350D01*
X008100Y008100D01*
X007600Y008100D01*
X007350Y008350D01*
X007100Y008100D01*
X006600Y008100D01*
X006350Y008350D01*
X006350Y008850D01*
X007350Y008850D02*
X007350Y008350D01*
X008350Y008350D02*
X008350Y008850D01*
X009450Y004995D02*
X009473Y004993D01*
X009496Y004988D01*
X009518Y004979D01*
X009538Y004966D01*
X009556Y004951D01*
X009571Y004933D01*
X009584Y004913D01*
X009593Y004891D01*
X009598Y004868D01*
X009600Y004845D01*
X009600Y003605D01*
X009598Y003582D01*
X009593Y003559D01*
X009584Y003537D01*
X009571Y003517D01*
X009556Y003499D01*
X009538Y003484D01*
X009518Y003471D01*
X009496Y003462D01*
X009473Y003457D01*
X009450Y003455D01*
X006250Y003455D02*
X006227Y003457D01*
X006204Y003462D01*
X006182Y003471D01*
X006162Y003484D01*
X006144Y003499D01*
X006129Y003517D01*
X006116Y003537D01*
X006107Y003559D01*
X006102Y003582D01*
X006100Y003605D01*
X006100Y004025D01*
X006100Y004425D01*
X006100Y004845D01*
X006102Y004868D01*
X006107Y004891D01*
X006116Y004913D01*
X006129Y004933D01*
X006144Y004951D01*
X006162Y004966D01*
X006182Y004979D01*
X006204Y004988D01*
X006227Y004993D01*
X006250Y004995D01*
X006100Y004425D02*
X006127Y004423D01*
X006154Y004418D01*
X006180Y004408D01*
X006204Y004396D01*
X006226Y004380D01*
X006246Y004362D01*
X006263Y004340D01*
X006278Y004317D01*
X006288Y004292D01*
X006296Y004266D01*
X006300Y004239D01*
X006300Y004211D01*
X006296Y004184D01*
X006288Y004158D01*
X006278Y004133D01*
X006263Y004110D01*
X006246Y004088D01*
X006226Y004070D01*
X006204Y004054D01*
X006180Y004042D01*
X006154Y004032D01*
X006127Y004027D01*
X006100Y004025D01*
D14*
X006100Y003595D02*
X009600Y003595D01*
M02*
