G75*
G70*
%OFA0B0*%
%FSLAX24Y24*%
%IPPOS*%
%LPD*%
%AMOC8*
5,1,8,0,0,1.08239X$1,22.5*
%
%ADD10C,0.1458*%
%ADD11R,0.0671X0.0592*%
%ADD12C,0.0600*%
%ADD13R,0.0600X0.0600*%
%ADD14R,0.0592X0.0671*%
%ADD15R,0.0680X0.0680*%
%ADD16C,0.0680*%
%ADD17C,0.0555*%
D10*
X001850Y004100D03*
X013850Y004100D03*
D11*
X011850Y005226D03*
X010850Y005226D03*
X009850Y005226D03*
X009850Y005974D03*
X010850Y005974D03*
X011850Y005974D03*
X010850Y002974D03*
X010850Y002226D03*
X009850Y002226D03*
X008850Y002226D03*
X007850Y002226D03*
X007850Y002974D03*
X008850Y002974D03*
X009850Y002974D03*
X006850Y002974D03*
X005850Y002974D03*
X005850Y002226D03*
X006850Y002226D03*
X004850Y002226D03*
X004850Y002974D03*
X004850Y005226D03*
X005850Y005226D03*
X006850Y005226D03*
X006850Y005974D03*
X005850Y005974D03*
X004850Y005974D03*
D12*
X004850Y008600D03*
X003850Y008600D03*
X009850Y008600D03*
X010850Y008600D03*
D13*
X011850Y008600D03*
X005850Y008600D03*
D14*
X005724Y007850D03*
X004976Y007850D03*
X009976Y007850D03*
X010724Y007850D03*
D15*
X006850Y008600D03*
D16*
X007850Y008600D03*
X008850Y008600D03*
D17*
X003850Y001100D03*
X004850Y001100D03*
X005850Y001100D03*
X006850Y001100D03*
X007850Y001100D03*
X008850Y001100D03*
X009850Y001100D03*
X010850Y001100D03*
X011850Y001100D03*
X011850Y007100D03*
X010850Y007100D03*
X009850Y007100D03*
X008850Y007100D03*
X007850Y007100D03*
X006850Y007100D03*
X005850Y007100D03*
X004850Y007100D03*
X003850Y007100D03*
M02*
